<?xml version="1.0"?><svg xmlns="http://www.w3.org/2000/svg" xmlns:xlink="http://www.w3.org/1999/xlink" width="503.23" height="950" viewBox="175.31 150.05 503.23 950" xmlns:c2pa="http://c2pa.org/manifest"><metadata><c2pa:manifest>AAAWgmp1bWIAAAAeanVtZGMycGEAEQAQgAAAqgA4m3EDYzJwYQAAABZcanVtYgAAAEdqdW1kYzJtYQARABCAAACqADibcQN1cm46YzJwYTphZDA0ODMyYi0wYjU1LTQ5MmUtYTMwOC00YjI0ODMwODk5ZDUAAAADl2p1bWIAAAApanVtZGMyYXMAEQAQgAAAqgA4m3EDYzJwYS5hc3NlcnRpb25zAAAAALxqdW1iAAAARGp1bWRjYm9yABEAEIAAAKoAOJtxE2MycGEuaW5ncmVkaWVudC52MwAAAAAYYzJzaDoSM77rz1Ph5Bn0QeRD/pAAAABwY2JvcqNpZGM6Zm9ybWF0bWltYWdlL3N2Zyt4bWxqaW5zdGFuY2VJRHgseG1wOmlpZDplMzczNzQzOS1hNWQ3LTQ2NjQtYTgzNi1hNjZjMzFkMDg0MTlscmVsYXRpb25zaGlwaHBhcmVudE9mAAAB4mp1bWIAAABBanVtZGNib3IAEQAQgAAAqgA4m3ETYzJwYS5hY3Rpb25zLnYyAAAAABhjMnNoej11So4ur7VbY3p293O6WQAAAZljYm9yomdhY3Rpb25zgqJmYWN0aW9ua2MycGEub3BlbmVkanBhcmFtZXRlcnOha2luZ3JlZGllbnRzgaJjdXJseC1zZWxmI2p1bWJmPWMycGEuYXNzZXJ0aW9ucy9jMnBhLmluZ3JlZGllbnQudjNkaGFzaFgg7ulvwBAVPUDur1gwTZ+oVwizMyJMOk2bKmhn0NM1i4GkZmFjdGlvbngdY29tLmFudGhyb3BpYy5jbGF1ZGUucHJvdmlkZWRqcGFyYW1ldGVyc6F4H2NvbS5hbnRocm9waWMub3JpZ2luLWNvbmZpZGVuY2VndW5rbm93bmtkZXNjcmlwdGlvbnhmQ2xhdWRlIHByb3ZpZGVkIHRoaXMgZmlsZSBhdCB0aGUgcmVxdWVzdCBvZiBhIHVzZXIgYW5kIG1heSBoYXZlIGNyZWF0ZWQgb3IgbW9kaWZpZWQgdGhlIGZpbGUgY29udGVudHMubXNvZnR3YXJlQWdlbnShZG5hbWVmQ2xhdWRlcmFsbEFjdGlvbnNJbmNsdWRlZPUAAADIanVtYgAAAEBqdW1kY2JvcgARABCAAACqADibcRNjMnBhLmhhc2guZGF0YQAAAAAYYzJzaCntbh4s44Z5uHe+FToZmsIAAACAY2JvcqVjYWxnZnNoYTI1NmNwYWRNAAAAAAAAAAAAAAAAAGRoYXNoWCASDE6L3JQqW7nYq/A/SO52jakOtrveKMF5GrGLxVKx1mRuYW1lbmp1bWJmIG1hbmlmZXN0amV4Y2x1c2lvbnOBomVzdGFydBjuZmxlbmd0aBkeBAAAAj5qdW1iAAAAJ2p1bWRjMmNsABEAEIAAAKoAOJtxA2MycGEuY2xhaW0udjIAAAACD2Nib3KlY2FsZ2ZzaGEyNTZpc2lnbmF0dXJleE1zZWxmI2p1bWJmPS9jMnBhL3VybjpjMnBhOmFkMDQ4MzJiLTBiNTUtNDkyZS1hMzA4LTRiMjQ4MzA4OTlkNS9jMnBhLnNpZ25hdHVyZWppbnN0YW5jZUlEeCx4bXA6aWlkOjQ1YzM5YWVjLTljOWUtNGE2Zi04YTQ4LWMzNDA1MDMxMDY1Y3JjcmVhdGVkX2Fzc2VydGlvbnODomN1cmx4LXNlbGYjanVtYmY9YzJwYS5hc3NlcnRpb25zL2MycGEuaW5ncmVkaWVudC52M2RoYXNoWCDu6W/AEBU9QO6vWDBNn6hXCLMzIkw6TZsqaGfQ0zWLgaJjdXJseCpzZWxmI2p1bWJmPWMycGEuYXNzZXJ0aW9ucy9jMnBhLmFjdGlvbnMudjJkaGFzaFgg4l7b1ZluuyJuU8lwdTPWZVS5iLIJSmccBdLIWFj+tLqiY3VybHgpc2VsZiNqdW1iZj1jMnBhLmFzc2VydGlvbnMvYzJwYS5oYXNoLmRhdGFkaGFzaFggxC4NkxBl10jQ/a8YDY1PxkCWvbR6cf3tmJwBeKXoK5p0Y2xhaW1fZ2VuZXJhdG9yX2luZm+jZG5hbWVvQW50aHJvcGljIEZpbGVzZ3ZlcnNpb25lMS4wLjBrc3BlY1ZlcnNpb25lMi40LjAAABA4anVtYgAAAChqdW1kYzJjcwARABCAAACqADibcQNjMnBhLnNpZ25hdHVyZQAAABAIY2JvctKEWQISogEmGCFZAgowggIGMIIBjaADAgECAhRA5aAK7sI50L64g/oGQgU9Z1UTADAKBggqhkjOPQQDAzBJMRcwFQYDVQQKEw5BbnRocm9waWMsIFBCQzEuMCwGA1UEAxMlQW50aHJvcGljIENvbnRlbnQgQ3JlZGVudGlhbHMgUm9vdCBDQTAeFw0yNjA4MDcxODQzNTZaFw0yODA4MDYxOTQzNTZaMEQxFzAVBgNVBAoTDkFudGhyb3BpYywgUEJDMSkwJwYDVQQDEyBBbnRocm9waWMgQ2xhdWRlIENvbnRlbnQgU2lnbmluZzBZMBMGByqGSM49AgEGCCqGSM49AwEHA0IABJh6CmvLUBgFFNU0vUKlOVtE6djd17L5SuwX0LemFisBM3dkd/3cyjxFA3Qo5S46fX0/ihY0VZ7mfb9KF703t5OjWDBWMA4GA1UdDwEB/wQEAwIHgDAVBgNVHSUEDjAMBgorBgEEAYPoXgIBMAwGA1UdEwEB/wQCMAAwHwYDVR0jBBgwFoAUzlHiBIFOZFsj+OPEz5o+nMHXXMIwCgYIKoZIzj0EAwMDZwAwZAIwMXMdFJ4BetLLVY7ORuE9noqbbAZOZn/aArXyTwFAZfKrPzxF2vPoJNf1+UCdg1XGAjBwX1zd9WGqYkqmL5SFqw1QySjr1zJfpJM9+1rdDwSPLMOPOjKuiXjoU/pUUeG9RwmhY3BhZFkNngAAAAAAAAAAAAAAAAAAAAAAAAAAAAAAAAAAAAAAAAAAAAAAAAAAAAAAAAAAAAAAAAAAAAAAAAAAAAAAAAAAAAAAAAAAAAAAAAAAAAAAAAAAAAAAAAAAAAAAAAAAAAAAAAAAAAAAAAAAAAAAAAAAAAAAAAAAAAAAAAAAAAAAAAAAAAAAAAAAAAAAAAAAAAAAAAAAAAAAAAAAAAAAAAAAAAAAAAAAAAAAAAAAAAAAAAAAAAAAAAAAAAAAAAAAAAAAAAAAAAAAAAAAAAAAAAAAAAAAAAAAAAAAAAAAAAAAAAAAAAAAAAAAAAAAAAAAAAAAAAAAAAAAAAAAAAAAAAAAAAAAAAAAAAAAAAAAAAAAAAAAAAAAAAAAAAAAAAAAAAAAAAAAAAAAAAAAAAAAAAAAAAAAAAAAAAAAAAAAAAAAAAAAAAAAAAAAAAAAAAAAAAAAAAAAAAAAAAAAAAAAAAAAAAAAAAAAAAAAAAAAAAAAAAAAAAAAAAAAAAAAAAAAAAAAAAAAAAAAAAAAAAAAAAAAAAAAAAAAAAAAAAAAAAAAAAAAAAAAAAAAAAAAAAAAAAAAAAAAAAAAAAAAAAAAAAAAAAAAAAAAAAAAAAAAAAAAAAAAAAAAAAAAAAAAAAAAAAAAAAAAAAAAAAAAAAAAAAAAAAAAAAAAAAAAAAAAAAAAAAAAAAAAAAAAAAAAAAAAAAAAAAAAAAAAAAAAAAAAAAAAAAAAAAAAAAAAAAAAAAAAAAAAAAAAAAAAAAAAAAAAAAAAAAAAAAAAAAAAAAAAAAAAAAAAAAAAAAAAAAAAAAAAAAAAAAAAAAAAAAAAAAAAAAAAAAAAAAAAAAAAAAAAAAAAAAAAAAAAAAAAAAAAAAAAAAAAAAAAAAAAAAAAAAAAAAAAAAAAAAAAAAAAAAAAAAAAAAAAAAAAAAAAAAAAAAAAAAAAAAAAAAAAAAAAAAAAAAAAAAAAAAAAAAAAAAAAAAAAAAAAAAAAAAAAAAAAAAAAAAAAAAAAAAAAAAAAAAAAAAAAAAAAAAAAAAAAAAAAAAAAAAAAAAAAAAAAAAAAAAAAAAAAAAAAAAAAAAAAAAAAAAAAAAAAAAAAAAAAAAAAAAAAAAAAAAAAAAAAAAAAAAAAAAAAAAAAAAAAAAAAAAAAAAAAAAAAAAAAAAAAAAAAAAAAAAAAAAAAAAAAAAAAAAAAAAAAAAAAAAAAAAAAAAAAAAAAAAAAAAAAAAAAAAAAAAAAAAAAAAAAAAAAAAAAAAAAAAAAAAAAAAAAAAAAAAAAAAAAAAAAAAAAAAAAAAAAAAAAAAAAAAAAAAAAAAAAAAAAAAAAAAAAAAAAAAAAAAAAAAAAAAAAAAAAAAAAAAAAAAAAAAAAAAAAAAAAAAAAAAAAAAAAAAAAAAAAAAAAAAAAAAAAAAAAAAAAAAAAAAAAAAAAAAAAAAAAAAAAAAAAAAAAAAAAAAAAAAAAAAAAAAAAAAAAAAAAAAAAAAAAAAAAAAAAAAAAAAAAAAAAAAAAAAAAAAAAAAAAAAAAAAAAAAAAAAAAAAAAAAAAAAAAAAAAAAAAAAAAAAAAAAAAAAAAAAAAAAAAAAAAAAAAAAAAAAAAAAAAAAAAAAAAAAAAAAAAAAAAAAAAAAAAAAAAAAAAAAAAAAAAAAAAAAAAAAAAAAAAAAAAAAAAAAAAAAAAAAAAAAAAAAAAAAAAAAAAAAAAAAAAAAAAAAAAAAAAAAAAAAAAAAAAAAAAAAAAAAAAAAAAAAAAAAAAAAAAAAAAAAAAAAAAAAAAAAAAAAAAAAAAAAAAAAAAAAAAAAAAAAAAAAAAAAAAAAAAAAAAAAAAAAAAAAAAAAAAAAAAAAAAAAAAAAAAAAAAAAAAAAAAAAAAAAAAAAAAAAAAAAAAAAAAAAAAAAAAAAAAAAAAAAAAAAAAAAAAAAAAAAAAAAAAAAAAAAAAAAAAAAAAAAAAAAAAAAAAAAAAAAAAAAAAAAAAAAAAAAAAAAAAAAAAAAAAAAAAAAAAAAAAAAAAAAAAAAAAAAAAAAAAAAAAAAAAAAAAAAAAAAAAAAAAAAAAAAAAAAAAAAAAAAAAAAAAAAAAAAAAAAAAAAAAAAAAAAAAAAAAAAAAAAAAAAAAAAAAAAAAAAAAAAAAAAAAAAAAAAAAAAAAAAAAAAAAAAAAAAAAAAAAAAAAAAAAAAAAAAAAAAAAAAAAAAAAAAAAAAAAAAAAAAAAAAAAAAAAAAAAAAAAAAAAAAAAAAAAAAAAAAAAAAAAAAAAAAAAAAAAAAAAAAAAAAAAAAAAAAAAAAAAAAAAAAAAAAAAAAAAAAAAAAAAAAAAAAAAAAAAAAAAAAAAAAAAAAAAAAAAAAAAAAAAAAAAAAAAAAAAAAAAAAAAAAAAAAAAAAAAAAAAAAAAAAAAAAAAAAAAAAAAAAAAAAAAAAAAAAAAAAAAAAAAAAAAAAAAAAAAAAAAAAAAAAAAAAAAAAAAAAAAAAAAAAAAAAAAAAAAAAAAAAAAAAAAAAAAAAAAAAAAAAAAAAAAAAAAAAAAAAAAAAAAAAAAAAAAAAAAAAAAAAAAAAAAAAAAAAAAAAAAAAAAAAAAAAAAAAAAAAAAAAAAAAAAAAAAAAAAAAAAAAAAAAAAAAAAAAAAAAAAAAAAAAAAAAAAAAAAAAAAAAAAAAAAAAAAAAAAAAAAAAAAAAAAAAAAAAAAAAAAAAAAAAAAAAAAAAAAAAAAAAAAAAAAAAAAAAAAAAAAAAAAAAAAAAAAAAAAAAAAAAAAAAAAAAAAAAAAAAAAAAAAAAAAAAAAAAAAAAAAAAAAAAAAAAAAAAAAAAAAAAAAAAAAAAAAAAAAAAAAAAAAAAAAAAAAAAAAAAAAAAAAAAAAAAAAAAAAAAAAAAAAAAAAAAAAAAAAAAAAAAAAAAAAAAAAAAAAAAAAAAAAAAAAAAAAAAAAAAAAAAAAAAAAAAAAAAAAAAAAAAAAAAAAAAAAAAAAAAAAAAAAAAAAAAAAAAAAAAAAAAAAAAAAAAAAAAAAAAAAAAAAAAAAAAAAAAAAAAAAAAAAAAAAAAAAAAAAAAAAAAAAAAAAAAAAAAAAAAAAAAAAAAAAAAAAAAAAAAAAAAAAAAAAAAAAAAAAAAAAAAAAAAAAAAAAAAAAAAAAAAAAAAAAAAAAAAAAAAAAAAAAAAAAAAAAAAAAAAAAAAAAAAAAAAAAAAAAAAAAAAAAAAAAAAAAAAAAAAAAAAAAAAAAAAAAAAAAAAAAAAAAAAAAAAAAAAAAAAAAAAAAAAAAAAAAAAAAAAAAAAAAAAAAAAAAAAAAAAAAAAAAAAAAAAAAAAAAAAAAAAAAAAAAAAAAAAAAAAAAAAAAAAAAAAAAAAAAAAAAAAAAAAAAAAAAAAAAAAAAAAAAAAAAAAAAAAAAAAAAAAAAAAAAAAAAAAAAAAAAAAAAAAAAAAAAAAAAAAAAAAAAAAAAAAAAAAAAAAAAAAAAAAAAAAAAAAAAAAAAAAAAAAAAAAAAAAAAAAAAAAAAAAAAAAAAAAAAAAAAAAAAAAAAAAAAAAAAAAAAAAAAAAAAAAAAAAAAAAAAAAAAAAAAAAAAAAAAAAAAAAAAAAAAAAAAAAAAAAAAAAAAAAAAAAAAAAAAAAAAAAAAAAAAAAAAAAAAAAAAAAAAAAAAAAAAAAAAAAAAAAAAAAAAAAAAAAAAAAAAAAAAAAAAAAAAAAAAAAAAAAAAAAAAAAAAAAAAAAAAAAAAAAAAAAAAAAAAAAAAAAAAAAAAAAAAAAAAAAAAAAAAAAAAAAAAAAAAAAAAAAAAAAAAAAAAAAAAAAAAAAAAAAAAAAAAAAAAAAAAAAAAAAAAAAAAAAAAAAAAAAAAAAAAAAAAAAAAAAAAAAAAAAAAAAAAAAAAAAAAAAAAAAAAAAAAAAAAAAAAAAAAAAAAAAAAAAAAAAAAAAAAAAAAAAAAAAAAAAAAAAAAAAAAAAAAAAAAAAAAAAAAAAAAAAAAAAAAAAAAAAAAAAAAAAAAAAAAAAAAAAAAAAAAAAAAAAAAAAAAAAAAAAAAAAAAAAAAAAAAAAAAAAAAAAAAAAAAAAAAAAAAAAAAAAAAAAAAAAAAAAAAAAAAAAAAAAAAAAAAAAAAAAAAAAAAAAAAAAAAAAAAAAAAAAAAAAAAAAAAAAAAAAAAAAAAAAAAAAAAAAAAAAAAAAAAAAAAAAAAAAAAAAAAAAAAAAAAAAAAAAAAAAAAAAAAAAAAAAAAAAAAAAAAAAAAAAAAAAAAAAAAAAAAAAAAAAAAAAAAAAAAAAAAAAAAAAAAAAAAAAAAAAAAAAAAAAAAAAAAAAAAAAAAAAAAAAAAAAAAAAAAAAAAAAAAAAAAAAAAAAAAAAAAAAAAAAAAAAAAAAAAAAAAAAAAAAAAAAAAAAAAAAAAAAAAAAAAAAAAAAAAAAAAAAAAAAAAAAAAAAAAAAAAAAAAAAAAAAAAAAAAAAAAAAAAAAAAAAAAAAAAAAAAAAAAAAAAAAAAAAAAAAAAAAAAAAAAAAAAAAAAAAAAAAAAAAAAAAAAAAAAAAAAAAAAAAAAAAAAAAAAAAAAAAAAAAAAAAAAAAAAAAAAAAAAAAAAAAAAAAAAAAAAAAAAAAAAAAAAAAAAAAAAAAAAAAAAAAAAAAAAAAAAAAAAAAAAAAAAAAAAAAAAAAAAAAAAAAAAAAAAAPZYQNzF/vC4JcZ8ZjzyvU91+vrOY7KIxIYkEEOX8RGRWm7u338vAnYabSsKTqZ2NO+Cb0mtIQh+/dQ8BlYrTDFKTYw=</c2pa:manifest></metadata>
<path fill-rule="nonzero" fill="rgb(90.588379%, 23.921204%, 12.940979%)" fill-opacity="1" d="M 468.285156 1605.085938 C 453.582031 1663.90625 454.648438 1722.597656 476.757812 1775.476562 C 488.773438 1728.527344 479.628906 1653.214844 468.285156 1605.085938 M 418.027344 1705.761719 L 426.265625 1834.492188 L 435.800781 1834.316406 L 439.972656 1662.175781 L 470.53125 1516.535156 C 475.5 1492.859375 483.015625 1470.851562 474.25 1446.0625 C 459.679688 1404.847656 446.578125 1362.449219 450.058594 1317.328125 C 450.75 1308.359375 449.210938 1303.652344 441.019531 1303.292969 C 436.703125 1303.105469 432.835938 1304.980469 433.503906 1311.628906 L 443.867188 1414.558594 C 425.445312 1391.644531 425.019531 1366.589844 415.433594 1339.257812 C 400.976562 1369.542969 421.949219 1393.53125 426.289062 1418.242188 C 437.8125 1483.851562 413.527344 1541.382812 399.890625 1602.21875 C 385.007812 1668.601562 396.25 1736.714844 393.558594 1803.496094 C 417.351562 1798.753906 404.382812 1746.511719 418.027344 1705.761719 M 457.582031 1285.457031 C 457.582031 1281.53125 454.402344 1278.347656 450.476562 1278.347656 C 446.550781 1278.347656 443.371094 1281.53125 443.371094 1285.457031 C 443.371094 1289.378906 446.550781 1292.5625 450.476562 1292.5625 C 454.402344 1292.5625 457.582031 1289.378906 457.582031 1285.457031 M 463.964844 1259.925781 C 463.964844 1256 460.785156 1252.820312 456.859375 1252.820312 C 452.933594 1252.820312 449.753906 1256 449.753906 1259.925781 C 449.753906 1263.851562 452.933594 1267.03125 456.859375 1267.03125 C 460.785156 1267.03125 463.964844 1263.851562 463.964844 1259.925781 M 432.054688 1093.984375 C 432.054688 1090.058594 428.871094 1086.878906 424.945312 1086.878906 C 421.023438 1086.878906 417.839844 1090.058594 417.839844 1093.984375 C 417.839844 1097.910156 421.023438 1101.089844 424.945312 1101.089844 C 428.871094 1101.089844 432.054688 1097.910156 432.054688 1093.984375 M 304.40625 755.71875 C 304.40625 751.792969 301.222656 748.609375 297.296875 748.609375 C 293.375 748.609375 290.191406 751.792969 290.191406 755.71875 C 290.191406 759.640625 293.375 762.824219 297.296875 762.824219 C 301.222656 762.824219 304.40625 759.640625 304.40625 755.71875 M 347.140625 829.53125 C 383.714844 839.925781 407 809.214844 405.53125 778.675781 C 404.234375 751.6875 383.257812 725.578125 350.746094 733.179688 C 329.121094 738.234375 320.601562 761.046875 319.160156 778.898438 C 317.726562 796.628906 323.921875 822.929688 347.140625 829.53125 M 540.238281 765.460938 C 538.617188 741.949219 525.589844 728.128906 509.5625 724.882812 C 493.546875 721.632812 478.886719 726.738281 467.167969 741.117188 C 446.238281 766.800781 452.953125 808.867188 484.335938 823.566406 C 502.042969 831.859375 519.359375 821.476562 529.214844 811.9375 C 540.453125 801.066406 541.613281 785.390625 540.238281 765.460938 M 320.535156 1835.96875 L 358.96875 1822.550781 L 359.058594 1643.308594 C 359.074219 1605.863281 375.597656 1569.15625 387.855469 1534.839844 C 421.859375 1439.632812 366.640625 1370.140625 376.15625 1324.609375 C 390.289062 1256.980469 445.105469 1209.476562 398.332031 1146.816406 C 367.714844 1105.796875 367.566406 1068.746094 384.460938 1019.761719 C 392.199219 997.328125 372.546875 945.050781 351.75 933.664062 C 325.0625 919.050781 305.367188 913.089844 288.5625 884.027344 C 262.015625 838.105469 247.769531 764.199219 289.421875 775.28125 C 286.109375 765.296875 278.5 763.675781 268.964844 764.164062 C 265.304688 751.871094 269.167969 726.5 279.765625 719.328125 C 284.925781 719.554688 292.121094 729.8125 296.257812 731.074219 C 308.714844 734.863281 317.890625 701.730469 346.972656 685.523438 C 342.777344 677.230469 333.21875 671.835938 326.457031 671.5 C 313.609375 670.863281 294.503906 699.722656 293.460938 672.882812 C 309.804688 652.816406 330.820312 622.789062 358.753906 615.515625 L 415.480469 600.75 C 462.933594 588.394531 516.050781 616.082031 556.75 646.460938 C 542.90625 670.503906 520.832031 665.917969 495.523438 671.390625 C 553.957031 691.078125 553.273438 731.851562 579.980469 699.5625 C 631.515625 765.574219 593.910156 898.070312 516.109375 937.339844 L 493.234375 1010.949219 C 482.386719 1045.855469 463.867188 1086.507812 486.859375 1120.996094 C 520.953125 1172.132812 523.273438 1230.53125 494.527344 1286.1875 C 476.945312 1320.226562 475.460938 1359.3125 494.710938 1393.632812 C 550.238281 1492.621094 486.242188 1556.140625 498.628906 1636.53125 C 508.347656 1699.589844 514.050781 1758.308594 510.140625 1824.230469 C 532.882812 1820.832031 543.527344 1830.902344 553.832031 1841.410156 L 582.554688 1843.496094 C 588.285156 1843.910156 597.304688 1856.179688 592.972656 1863.671875 C 578.867188 1875.597656 552.53125 1867.246094 534.433594 1864.148438 C 497.046875 1857.75 468.546875 1864.832031 435.253906 1873.8125 C 413.691406 1879.628906 388.597656 1856.152344 368.03125 1856.871094 L 314.777344 1858.730469 C 307.902344 1858.972656 310.746094 1840.863281 317.804688 1838.597656 C 316.578125 1836.082031 314.496094 1834.109375 312.644531 1833.046875 L 295.625 1829.800781 C 290.839844 1823.265625 296.78125 1818.023438 301.273438 1817.726562 C 310.808594 1817.09375 318.777344 1820.453125 316.273438 1830.851562 Z M 320.535156 1835.96875 "></path>
<path fill-rule="nonzero" fill="rgb(90.588379%, 23.921204%, 12.940979%)" fill-opacity="1" d="M 572.589844 506.171875 C 617.933594 523.351562 637.371094 608.820312 608.941406 645.984375 C 604.367188 651.964844 590.746094 645.96875 588.25 641.261719 C 573.777344 613.941406 606.808594 560.703125 537.179688 522.324219 C 486.191406 494.21875 485.878906 418.347656 511.144531 413.996094 C 542.171875 408.648438 499.082031 478.324219 572.589844 506.171875 "></path>
<path fill-rule="nonzero" fill="rgb(90.588379%, 23.921204%, 12.940979%)" fill-opacity="1" d="M 419.480469 412.757812 C 425.671875 418.398438 421.097656 430.792969 418.550781 434.609375 C 415.886719 438.605469 410.742188 443.792969 401.980469 442.683594 C 396.304688 441.964844 394.238281 427.300781 389.007812 422.5625 C 372.328125 407.457031 358.179688 396.90625 358.898438 370.964844 C 360.53125 312.195312 409.496094 258.230469 422.515625 277.347656 C 434.429688 294.84375 350.890625 350.296875 419.480469 412.757812 "></path>
<path fill-rule="nonzero" fill="rgb(90.588379%, 23.921204%, 12.940979%)" fill-opacity="1" d="M 341.640625 422.554688 C 321.792969 466.78125 354.8125 526.167969 321.136719 498.3125 C 308.949219 488.230469 312.667969 435.082031 319.585938 426.597656 L 326.628906 417.960938 C 330.988281 412.613281 343.53125 418.347656 341.640625 422.554688 "></path>
<path fill-rule="nonzero" fill="rgb(90.588379%, 23.921204%, 12.940979%)" fill-opacity="1" d="M 459.773438 214.953125 L 461.867188 170.964844 C 462.382812 160.132812 470.875 151.507812 478.007812 152.378906 C 492.746094 154.179688 498.054688 188.570312 486.539062 207.679688 C 482.9375 213.65625 473.578125 218.066406 459.773438 214.953125 "></path>
<path fill-rule="nonzero" fill="rgb(90.588379%, 23.921204%, 12.940979%)" fill-opacity="1" d="M 372.722656 547.644531 C 355.316406 562.378906 337.34375 520.65625 348.949219 509.25 C 362.316406 506.734375 382.789062 539.125 372.722656 547.644531 "></path>
<path fill-rule="nonzero" fill="rgb(90.588379%, 23.921204%, 12.940979%)" fill-opacity="1" d="M 667.6875 1847.367188 C 651.488281 1838.859375 637.546875 1835.726562 620.296875 1837.351562 C 618.503906 1830.953125 618.542969 1824.6875 621.847656 1823.167969 C 629.582031 1819.613281 654.015625 1820.65625 665.566406 1826.78125 C 669.679688 1828.964844 674.078125 1835.726562 667.6875 1847.367188 "></path>
<path fill-rule="nonzero" fill="rgb(90.588379%, 23.921204%, 12.940979%)" fill-opacity="1" d="M 238.269531 1847.980469 C 262.136719 1841.910156 287.769531 1842.621094 290.460938 1850.75 C 293.214844 1859.082031 288.976562 1864.925781 278.019531 1863.628906 C 262.757812 1861.824219 246.695312 1864.394531 238.269531 1847.980469 "></path>
<path fill-rule="nonzero" fill="rgb(90.588379%, 23.921204%, 12.940979%)" fill-opacity="1" d="M 592.132812 1907.417969 C 581.113281 1909.589844 575.515625 1906.675781 574.300781 1900.019531 C 572.707031 1891.296875 576.011719 1884.828125 587.164062 1883.203125 C 594.6875 1882.109375 605.347656 1884.148438 606.59375 1890.070312 C 608.347656 1898.402344 604.273438 1905.027344 592.132812 1907.417969 "></path>
<path fill-rule="nonzero" fill="rgb(90.588379%, 23.921204%, 12.940979%)" fill-opacity="1" d="M 350.050781 1904.175781 C 361.332031 1919.59375 347.066406 1921.726562 339.027344 1922.003906 C 328.679688 1922.355469 319.871094 1919.847656 324.992188 1903.507812 C 328.359375 1901.757812 346.664062 1899.546875 350.050781 1904.175781 "></path>
<path fill-rule="nonzero" fill="rgb(90.588379%, 23.921204%, 12.940979%)" fill-opacity="1" d="M 252.925781 1811.273438 C 246.261719 1814.203125 240.527344 1814.84375 233.257812 1812.210938 C 230.191406 1811.097656 230.648438 1808.035156 231.546875 1801.925781 C 232.160156 1797.734375 232.871094 1794.253906 241.265625 1793.152344 C 247.34375 1792.355469 253.21875 1792.644531 255.414062 1795.4375 C 258.355469 1799.179688 259.667969 1808.304688 252.925781 1811.273438 "></path>
<path fill-rule="nonzero" fill="rgb(90.588379%, 23.921204%, 12.940979%)" fill-opacity="1" d="M 262.410156 1903.753906 C 250.667969 1903.6875 246.53125 1898.5 246.242188 1894.976562 C 245.554688 1886.589844 250.523438 1882.128906 260.289062 1882.214844 C 268.242188 1882.285156 274.953125 1881.894531 277.082031 1889.316406 C 278.90625 1895.683594 276.140625 1903.832031 262.410156 1903.753906 "></path>
<path fill-rule="nonzero" fill="rgb(90.588379%, 23.921204%, 12.940979%)" fill-opacity="1" d="M 185.484375 1838.234375 C 191.28125 1835.953125 202.269531 1837.035156 203.335938 1841.699219 C 205.066406 1849.238281 204.445312 1854.863281 200.667969 1857.242188 C 195.582031 1860.441406 184.824219 1861.511719 180.492188 1857.804688 C 175.785156 1853.78125 177.0625 1841.550781 185.484375 1838.234375 "></path>
<path fill-rule="nonzero" fill="rgb(90.588379%, 23.921204%, 12.940979%)" fill-opacity="1" d="M 676.273438 1866.808594 C 678.003906 1880.273438 667.195312 1880.34375 662.359375 1881.480469 C 654.328125 1883.371094 644.203125 1877.976562 649.25 1865.101562 C 652.027344 1858.019531 675.3125 1859.515625 676.273438 1866.808594 "></path>
<path fill-rule="nonzero" fill="rgb(90.588379%, 23.921204%, 12.940979%)" fill-opacity="1" d="M 581.324219 1793 C 584.273438 1789.390625 594.464844 1789.300781 598.164062 1791.566406 C 601.269531 1793.464844 602.382812 1798.863281 599.871094 1803.601562 C 597.492188 1808.089844 591.554688 1808.714844 587.609375 1808.828125 C 579.988281 1809.046875 575.546875 1800.070312 581.324219 1793 "></path>
<path fill-rule="nonzero" fill="rgb(90.588379%, 23.921204%, 12.940979%)" fill-opacity="1" d="M 339.824219 1875.804688 C 340.828125 1872.929688 352.027344 1872.320312 354.851562 1873.914062 C 357.503906 1875.414062 357.191406 1878.765625 357.796875 1885.617188 C 358.058594 1888.5625 351.898438 1889.910156 345.46875 1888.441406 C 341.582031 1887.550781 336.207031 1886.132812 339.824219 1875.804688 "></path>
<path fill-rule="nonzero" fill="rgb(90.588379%, 23.921204%, 12.940979%)" fill-opacity="1" d="M 502.976562 1909.382812 C 505.234375 1901.847656 513.949219 1903.777344 516.757812 1905.042969 C 520.167969 1906.582031 522.390625 1914.578125 520.507812 1919.320312 C 519.570312 1921.679688 514.550781 1922.542969 511.570312 1922.695312 C 507.839844 1922.878906 500.003906 1919.28125 502.976562 1909.382812 "></path>
<path fill-rule="nonzero" fill="rgb(90.588379%, 23.921204%, 12.940979%)" fill-opacity="1" d="M 496.605469 763.984375 C 502.082031 760.882812 506.949219 763.546875 508.359375 765.890625 C 511.199219 770.609375 510.460938 778.007812 505.015625 782.355469 C 501.6875 785.015625 492.59375 784.542969 490.289062 778.851562 C 488.648438 774.796875 490.519531 767.425781 496.605469 763.984375 "></path>
<path fill-rule="nonzero" fill="rgb(90.588379%, 23.921204%, 12.940979%)" fill-opacity="1" d="M 360.695312 774.949219 C 366.175781 771.847656 371.039062 774.515625 372.453125 776.855469 C 375.292969 781.574219 374.554688 788.972656 369.109375 793.324219 C 365.78125 795.980469 356.6875 795.511719 354.382812 789.820312 C 352.742188 785.765625 354.613281 778.390625 360.695312 774.949219 "></path>
</svg>